<svg width="18" height="18" viewBox="0 0 18 18" fill="none" xmlns="http://www.w3.org/2000/svg">
  <path fill-rule="evenodd" clip-rule="evenodd" d="M1.00966 1.01006C1.55639 0.463323 2.44282 0.463323 2.98956 1.01006L8.99961 7.02011L15.0097 1.01006C15.5564 0.463323 16.4428 0.463323 16.9896 1.01006C17.5363 1.55679 17.5363 2.44322 16.9896 2.98996L10.9795 9.00001L16.9896 15.0101C17.5363 15.5568 17.5363 16.4432 16.9896 16.99C16.4428 17.5367 15.5564 17.5367 15.0097 16.99L8.99961 10.9799L2.98956 16.99C2.44282 17.5367 1.55639 17.5367 1.00966 16.99C0.462926 16.4432 0.462926 15.5568 1.00966 15.0101L7.01971 9.00001L1.00966 2.98996C0.462926 2.44322 0.462926 1.55679 1.00966 1.01006Z" fill="#D1D5DB"/>
</svg>
