<svg width="48" height="16" viewBox="0 0 48 16" fill="none" xmlns="http://www.w3.org/2000/svg">
  <path d="M9.2 7.46C8.32 7.46 7.78 7.98 7.78 8.82C7.78 9.64 8.32 10.14 9.2 10.14H11.3C10.9 11.6 9.6 12.52 7.72 12.52C5.36 12.52 3.74 10.8 3.74 8.3C3.74 5.8 5.36 4.08 7.72 4.08C9.04 4.08 10.06 4.62 10.74 5.42C11.08 5.8 11.48 5.98 11.92 5.98C12.76 5.98 13.36 5.38 13.36 4.52C13.36 4.14 13.24 3.8 13.02 3.52C11.92 2.2 10.04 1.36 7.7 1.36C3.56 1.36 0.7 4.18 0.7 8.3C0.7 12.42 3.56 15.24 7.7 15.24C11.62 15.24 14.3 12.82 14.3 9.32V9.08C14.3 8.08 13.68 7.46 12.7 7.46H9.2ZM17.2828 0.879999C16.4428 0.879999 15.9228 1.44 15.9228 2.34V13.66C15.9228 14.56 16.4428 15.12 17.2828 15.12C18.1428 15.12 18.6628 14.56 18.6628 13.66V2.34C18.6628 1.44 18.1428 0.879999 17.2828 0.879999ZM22.107 4.04C23.047 4.04 23.667 3.4 23.667 2.46C23.667 1.52 23.047 0.919999 22.107 0.919999C21.187 0.919999 20.567 1.52 20.567 2.46C20.567 3.4 21.187 4.04 22.107 4.04ZM22.107 5.28C21.267 5.28 20.747 5.82 20.747 6.72V13.66C20.747 14.56 21.267 15.12 22.107 15.12C22.967 15.12 23.487 14.56 23.487 13.66V6.72C23.487 5.82 22.967 5.28 22.107 5.28ZM34.1913 0.879999C33.3513 0.879999 32.8313 1.44 32.8313 2.34V6.38H32.7913C32.1313 5.6 31.1113 5.16 29.8313 5.16C27.0513 5.16 25.2113 7.14 25.2113 10.2C25.2113 13.26 27.0513 15.24 29.8313 15.24C31.1113 15.24 32.1313 14.8 32.8113 14H32.8513C32.9713 14.7 33.4713 15.12 34.1913 15.12C35.0513 15.12 35.5713 14.56 35.5713 13.66V2.34C35.5713 1.44 35.0513 0.879999 34.1913 0.879999ZM30.3913 12.74C28.9913 12.74 28.0113 11.7 28.0113 10.2C28.0113 8.68 28.9913 7.66 30.3913 7.66C31.8113 7.66 32.8313 8.72 32.8313 10.2C32.8313 11.68 31.8113 12.74 30.3913 12.74ZM42.4816 7.52C43.6216 7.52 44.5616 8.16 44.7816 9.16H40.0816C40.3016 8.16 41.3016 7.52 42.4816 7.52ZM46.4816 13.66C46.6616 13.42 46.7616 13.16 46.7616 12.86C46.7616 12.14 46.2816 11.68 45.5616 11.68C45.2216 11.68 44.9016 11.82 44.6616 12.06C44.0616 12.62 43.4416 12.88 42.5816 12.88C41.2816 12.88 40.3816 12.18 40.0816 11.04H45.9816C46.8216 11.04 47.3816 10.48 47.3816 9.62V9.46C47.3816 7.16 45.2416 5.16 42.4816 5.16C39.4016 5.16 37.2816 7.2 37.2816 10.2C37.2816 13.2 39.4016 15.24 42.5816 15.24C44.2616 15.24 45.6016 14.68 46.4816 13.66Z" fill="black"/>
</svg>
