<svg width="71" height="23" viewBox="0 0 71 23" fill="none" xmlns="http://www.w3.org/2000/svg">
  <path d="M13.3 10.69C11.98 10.69 11.17 11.47 11.17 12.73C11.17 13.96 11.98 14.71 13.3 14.71H16.45C15.85 16.9 13.9 18.28 11.08 18.28C7.54 18.28 5.11 15.7 5.11 11.95C5.11 8.2 7.54 5.62 11.08 5.62C13.06 5.62 14.59 6.43 15.61 7.63C16.12 8.2 16.72 8.47 17.38 8.47C18.64 8.47 19.54 7.57 19.54 6.28C19.54 5.71 19.36 5.2 19.03 4.78C17.38 2.8 14.56 1.54 11.05 1.54C4.84 1.54 0.55 5.77 0.55 11.95C0.55 18.13 4.84 22.36 11.05 22.36C16.93 22.36 20.95 18.73 20.95 13.48V13.12C20.95 11.62 20.02 10.69 18.55 10.69H13.3ZM25.4242 0.819999C24.1642 0.819999 23.3842 1.66 23.3842 3.01V19.99C23.3842 21.34 24.1642 22.18 25.4242 22.18C26.7142 22.18 27.4942 21.34 27.4942 19.99V3.01C27.4942 1.66 26.7142 0.819999 25.4242 0.819999ZM32.6605 5.56C34.0705 5.56 35.0005 4.6 35.0005 3.19C35.0005 1.78 34.0705 0.879998 32.6605 0.879998C31.2805 0.879998 30.3505 1.78 30.3505 3.19C30.3505 4.6 31.2805 5.56 32.6605 5.56ZM32.6605 7.42C31.4005 7.42 30.6205 8.23 30.6205 9.58V19.99C30.6205 21.34 31.4005 22.18 32.6605 22.18C33.9505 22.18 34.7305 21.34 34.7305 19.99V9.58C34.7305 8.23 33.9505 7.42 32.6605 7.42ZM50.7869 0.819999C49.5269 0.819999 48.7469 1.66 48.7469 3.01V9.07H48.6869C47.6969 7.9 46.1669 7.24 44.2469 7.24C40.0769 7.24 37.3169 10.21 37.3169 14.8C37.3169 19.39 40.0769 22.36 44.2469 22.36C46.1669 22.36 47.6969 21.7 48.7169 20.5H48.7769C48.9569 21.55 49.7069 22.18 50.7869 22.18C52.0769 22.18 52.8569 21.34 52.8569 19.99V3.01C52.8569 1.66 52.0769 0.819999 50.7869 0.819999ZM45.0869 18.61C42.9869 18.61 41.5169 17.05 41.5169 14.8C41.5169 12.52 42.9869 10.99 45.0869 10.99C47.2169 10.99 48.7469 12.58 48.7469 14.8C48.7469 17.02 47.2169 18.61 45.0869 18.61ZM63.2223 10.78C64.9323 10.78 66.3423 11.74 66.6723 13.24H59.6223C59.9523 11.74 61.4523 10.78 63.2223 10.78ZM69.2223 19.99C69.4923 19.63 69.6423 19.24 69.6423 18.79C69.6423 17.71 68.9223 17.02 67.8423 17.02C67.3323 17.02 66.8523 17.23 66.4923 17.59C65.5923 18.43 64.6623 18.82 63.3723 18.82C61.4223 18.82 60.0723 17.77 59.6223 16.06H68.4723C69.7323 16.06 70.5723 15.22 70.5723 13.93V13.69C70.5723 10.24 67.3623 7.24 63.2223 7.24C58.6023 7.24 55.4223 10.3 55.4223 14.8C55.4223 19.3 58.6023 22.36 63.3723 22.36C65.8923 22.36 67.9023 21.52 69.2223 19.99Z" fill="black"/>
</svg>
